<?xml version="1.0" encoding="utf-8"?>
<!-- Generator: Adobe Illustrator 24.0.0, SVG Export Plug-In . SVG Version: 6.00 Build 0)  -->
<svg version="1.1" id="object" xmlns="http://www.w3.org/2000/svg" xmlns:xlink="http://www.w3.org/1999/xlink" x="0px" y="0px"
	 viewBox="0 0 128 128" style="enable-background:new 0 0 128 128;" xml:space="preserve">
<style type="text/css">
	.st0{fill:#FF4E00;}
</style>
<g>
	<path class="st0" d="M110.1,85.7l0.5-0.9L92.4,74.4l0-42.9L52.9,8.4L52.6,20l-11.9-6.8l0.1,26.9l-2.4,1l-5.5,6.5l3.4,5.1
		c-0.2,0.8-0.3,1.6-0.4,2.4c-0.1,0.6-0.1,1.3-0.1,1.9L32,59l3.7,12.3l4.1,0.8c0.2,0.4,0,0,0.2,0.4l0.1,0.8l0.3,14.5l-0.1,0.1l0.1,0
		l0.2,11.8l42,23.6l0.1-14.6l9.6,5.6l0-28.8l13.8,7.9l0.5-0.9l-14.3-8.2l0-3.9l10.6,6.1l0.5-0.9l-11.1-6.4l0-3.9L110.1,85.7z
		 M44.2,78.3c1.2,1.3,2.4,2.4,3.7,3.3c1.8,1.3,3.6,2.1,5.3,2.5l-0.3,3.5l-8.9-6L44.2,78.3z M36.9,55.4c0.4-4.2,2-7.1,4.6-8.3
		c0.2-0.1,0.3-0.1,0.5-0.2l3.4-0.3c5,0.8,10.7,6.1,14.2,13.8h0c4.5,9.9,3.7,19.9-1.8,22.4c-2.6,1.2-5.9,0.5-9.3-2
		c-3.5-2.5-6.6-6.6-8.8-11.4C37.5,64.6,36.5,59.6,36.9,55.4z M47.1,42.7l8.5,5.2l0,4.2c-2.8-3.2-5.9-5.4-8.9-6.3L47.1,42.7z
		 M66.5,70.7l-3.1,0.1c-0.3-3.4-1.2-7.1-2.9-10.7h0c0-0.1-0.1-0.1-0.1-0.2l2.7,0.2L66.5,70.7z M61.3,88l-3-4.3c2.1-1,3.5-3,4.3-5.6
		l3,4.3L61.3,88z M54.2,84.4c0.3,0,0.6,0.1,0.9,0.1c0.8,0,1.6-0.1,2.3-0.3l1,1.4l-4.5,2.3L54.2,84.4z M66.6,82.8l5.9-2.7l-3.9,4.7
		L63,87.4L66.6,82.8z M73.7,78.4l-7.3,3.4l-2.8-4l7.3-3.2L73.7,78.4C73.8,78.4,73.8,78.4,73.7,78.4z M70.8,73.5L63,77
		c0.4-1.6,0.5-3.3,0.5-5.2l3.7-0.1c0.1,0,0.1,0,0.2-0.1l0,0l3.8-1.8C71.2,70.7,71.2,72.2,70.8,73.5z M67.5,70.5l-3.3-10.7l6.4-2.8
		l2.9,10.6L67.5,70.5z M63.4,59L61,58.9l6.6-3.1l1.9,0.6L63.4,59z M59.9,58.8L59.9,58.8c-1.1-2.1-2.3-4-3.6-5.7l6.8-3.1
		c0.7,0.5,2.9,2.1,3.8,5l-7.2,3.4L59.9,58.8z M62.7,49.1l-6.2,2.8l0-3.9l6.4-2.8L62.7,49.1z M56.1,47.1l-8.4-5.2l6.5-3.1l8.3,5.5
		L56.1,47.1z M46.2,41.5l-0.5,4l-0.5,0c-1.1-0.1-2.2-0.1-3.2,0.2l-2.6-3.9l6.6-2.8l1.5,1.8L46.2,41.5z M34.1,47.8l4.5-5.3l2.5,3.6
		c0,0,0,0,0,0c-2.1,0.9-3.6,2.8-4.5,5.4L34.1,47.8z M35.9,59l-1.4-0.1l1.3-0.6C35.9,58.5,35.9,58.8,35.9,59z M36.5,70.5l-3.2-10.6
		L36,60c0.4,3.2,1.3,6.6,2.8,9.8c0.2,0.4,0.4,0.8,0.5,1.1L36.5,70.5z M43.4,77.3L43.4,77.3l-0.5,4.9l10.4,7l5.5-2.9l2.4,3.1l7.9-3.8
		l6-7.2l-3.4-4.6c0.6-1.7,0.4-3.7,0.3-4.5l2.1-1.1l0,0l0,0l0.4-0.2l-3.3-12.3l-3.4-1.1c-0.9-3.2-3.4-5.1-4.2-5.7l0.4-5l-9.8-6.5
		l-6.2,3l0.3-0.3l-2-2.5l-4.6,2L41.7,15l10.9,6.2l0,0.1l0.1,0l29.6,16.8l-0.6,72.3l-40.3-23l-0.2-13C41.9,75.5,42.6,76.4,43.4,77.3z
		 M41.7,99.2l-0.2-10.6l40.3,23l-0.1,10.1L41.7,99.2z M82.8,107.6L82.8,107.6l0.1-9.2l8.4,4.6c0,0,0.1,0,0.1,0l0,9.6L82.8,107.6z
		 M91.4,78.8l-5.9-3.4l-0.5,0.9l6.4,3.7l0,3.9l-4.5-2.6l-0.5,0.9l5,2.9l0,16.9l-8.3-4.6c-0.1,0-0.1-0.1-0.2-0.1l0.5-59.5l0-0.3
		L53.6,20.6l0.2-10.5L91.4,32l0,41.7l-2.4-1.4l-0.5,0.9l2.9,1.7L91.4,78.8z"/>
	<path class="st0" d="M53.6,79.2c0.8,0,1.6-0.2,2.3-0.5c4.5-2,5.3-9.8,1.8-17.4c-1.6-3.6-4-6.7-6.7-8.6c-2.7-2-5.4-2.5-7.6-1.5
		c-4.5,2-5.3,9.8-1.8,17.4C44.5,75,49.4,79.2,53.6,79.2z M43.8,52.1c0.6-0.3,1.2-0.4,1.9-0.4c1.5,0,3.1,0.6,4.7,1.8
		c2.5,1.8,4.8,4.7,6.3,8.2c3.2,7.1,2.6,14.3-1.3,16.1c-3.9,1.8-9.8-2.5-13-9.6C39.3,61.1,39.9,53.9,43.8,52.1z"/>
	<path class="st0" d="M51.5,71.9c0.4,0,0.8-0.1,1.2-0.3c2.2-1,2.7-4.7,1-8.5c-0.8-1.7-1.9-3.2-3.2-4.1c-1.4-1-2.7-1.2-3.8-0.7
		c-1.1,0.5-1.8,1.7-2,3.4c-0.1,1.6,0.2,3.4,1,5.1C47,69.9,49.4,71.9,51.5,71.9z M45.6,61.8c0.1-1.3,0.6-2.2,1.4-2.5
		c0.2-0.1,0.5-0.2,0.8-0.2c0.6,0,1.3,0.3,2.1,0.8c1.1,0.8,2.1,2.1,2.9,3.7h0c1.4,3.1,1.2,6.4-0.5,7.1c-1.7,0.8-4.3-1.2-5.7-4.3
		C45.8,64.8,45.5,63.1,45.6,61.8z"/>
	<path class="st0" d="M64.3,105.9l-7.5-4.5c-0.2-0.1-0.5-0.1-0.7,0.2c-0.1,0.2-0.1,0.5,0.2,0.7l7.5,4.5c0.1,0,0.2,0.1,0.3,0.1
		c0.2,0,0.3-0.1,0.4-0.2C64.6,106.4,64.6,106.1,64.3,105.9z"/>
</g>
</svg>
