<?xml version="1.0" encoding="utf-8"?>
<!-- Generator: Adobe Illustrator 23.0.6, SVG Export Plug-In . SVG Version: 6.00 Build 0)  -->
<svg version="1.1" id="Layer_1" xmlns="http://www.w3.org/2000/svg" xmlns:xlink="http://www.w3.org/1999/xlink" x="0px" y="0px"
	 viewBox="0 0 64 64" style="enable-background:new 0 0 64 64;" xml:space="preserve">
<style type="text/css">
	.st0{fill:url(#SVGID_1_);}
	.st1{fill:none;stroke:#000000;stroke-width:0.75;stroke-miterlimit:10;}
	.st2{fill:none;stroke:#000000;stroke-width:0.75;stroke-linecap:round;stroke-linejoin:round;stroke-miterlimit:10;}
	.st3{fill:url(#SVGID_2_);}
	.st4{fill:url(#SVGID_3_);}
	.st5{fill:url(#SVGID_4_);}
	.st6{fill:#FFFFFF;stroke:#000000;stroke-miterlimit:10;}
	.st7{fill:url(#SVGID_5_);}
	.st8{fill:#FFFFFF;stroke:#000000;stroke-width:0.75;stroke-miterlimit:10;}
	.st9{fill:url(#SVGID_6_);}
	.st10{fill:url(#SVGID_7_);}
	.st11{fill:url(#SVGID_8_);}
	.st12{fill:url(#SVGID_9_);}
	.st13{fill:url(#SVGID_10_);}
	.st14{fill:url(#SVGID_11_);}
	.st15{fill:url(#SVGID_12_);}
	.st16{fill:url(#SVGID_13_);}
	.st17{fill:url(#SVGID_14_);}
	.st18{fill:url(#SVGID_15_);}
	.st19{fill:none;stroke:#000000;stroke-width:0.75;stroke-linejoin:round;stroke-miterlimit:10;}
	.st20{fill:url(#SVGID_16_);}
	.st21{fill:url(#SVGID_17_);}
	.st22{fill:url(#SVGID_18_);}
	.st23{fill:url(#SVGID_19_);}
	.st24{fill:url(#SVGID_20_);}
	.st25{fill:url(#SVGID_21_);}
	.st26{fill:url(#path12_1_);}
	.st27{fill:url(#path19_1_);}
	.st28{fill:none;stroke:#000000;stroke-width:0.5;stroke-linecap:round;stroke-linejoin:round;stroke-miterlimit:10;}
	.st29{fill:url(#SVGID_22_);}
	.st30{fill:url(#SVGID_23_);}
	.st31{fill:none;stroke:#000000;stroke-width:0.5;stroke-miterlimit:10;}
	.st32{fill:url(#SVGID_24_);}
	.st33{fill:url(#SVGID_25_);}
	.st34{fill:url(#SVGID_26_);}
	.st35{fill:url(#SVGID_27_);}
	.st36{fill:url(#SVGID_28_);}
	.st37{fill:url(#SVGID_29_);}
	.st38{fill:url(#SVGID_30_);}
	.st39{fill:url(#SVGID_31_);}
	.st40{fill:url(#SVGID_32_);}
	.st41{fill:url(#SVGID_33_);}
</style>
<linearGradient id="SVGID_1_" gradientUnits="userSpaceOnUse" x1="31.1846" y1="45.474" x2="31.1846" y2="13.8624">
	<stop  offset="0" style="stop-color:#FF4E00"/>
	<stop  offset="1" style="stop-color:#FF4E00"/>
</linearGradient>
<path class="st0" d="M54.3,24.3c0-3.5-2.5-7.9-5.6-9.7c-1.6-0.9-3.1-1-4.2-0.4c0,0,0,0,0,0l0,0L15,31.6l-0.1,0.1l-4.5,8.7
	c-0.2,0.2-0.4,0.5-0.5,0.9l-1.8,3.6l4.1,0.2c0.2,0.1,0.3,0.1,0.5,0.1c0.1,0,0.2,0,0.4-0.1l9.9,0.4l29.6-17.4l0,0
	C53.7,27.4,54.3,26.1,54.3,24.3z M13.8,44.3c0.1-0.2,0.2-0.5,0.2-0.8c0-1.2-0.8-2.6-1.9-3.2c-0.3-0.1-0.5-0.2-0.8-0.3l4-7.7l2.2,0.8
	v1.2c0,0.1,0.1,0.3,0.2,0.3l2.4,1.4v1.4c0,0.1,0.1,0.3,0.2,0.3l1.9,1.1v1c0,0.1,0.1,0.2,0.1,0.3l1.3,1.1l-1.1,3.5L13.8,44.3z
	 M12.3,44.3c-0.1,0-0.1-0.1-0.2-0.1c-0.8-0.5-1.5-1.6-1.5-2.6c0,0,0-0.1,0-0.1l0.3-0.6c0.1,0,0.1-0.1,0.2-0.1c0.2,0,0.4,0.1,0.6,0.2
	c0.8,0.5,1.5,1.6,1.5,2.6c0,0.4-0.1,0.6-0.3,0.7c0,0,0,0,0,0L12.3,44.3z M24.5,41.1c0-0.1,0-0.3-0.1-0.4L23,39.6v-1
	c0-0.1-0.1-0.3-0.2-0.3l-1.9-1.1v-1.4c0-0.1-0.1-0.3-0.2-0.3l-2.4-1.4v-1.2c0-0.2-0.1-0.3-0.3-0.4l-2-0.7l27-15.9
	c-0.2,0.6-0.4,1.3-0.4,2.1c0,3.5,2.5,7.9,5.6,9.7c0.7,0.4,1.5,0.7,2.1,0.8L23.5,44.3L24.5,41.1z M10.1,42.6c0.2,0.6,0.5,1.1,0.9,1.6
	l-1.7-0.1L10.1,42.6z M52.1,27.5c-0.9,0.5-2.1,0.4-3.5-0.4c-2.9-1.7-5.2-5.7-5.2-9c0-1.5,0.5-2.6,1.4-3.1c0.4-0.2,0.8-0.3,1.2-0.3
	c0.7,0,1.4,0.2,2.2,0.7c2.9,1.7,5.2,5.7,5.2,9C53.5,25.8,53,26.9,52.1,27.5z"/>
</svg>
