<?xml version="1.0" encoding="utf-8"?>
<!-- Generator: Adobe Illustrator 24.0.0, SVG Export Plug-In . SVG Version: 6.00 Build 0)  -->
<svg version="1.1" id="krzywe" xmlns="http://www.w3.org/2000/svg" xmlns:xlink="http://www.w3.org/1999/xlink" x="0px" y="0px"
	 viewBox="0 0 128 128" style="enable-background:new 0 0 128 128;" xml:space="preserve">
<style type="text/css">
	.st0{fill:none;stroke:#FF4E00;stroke-linecap:round;stroke-miterlimit:10;}
	.st1{fill:#FF4E00;}
</style>
<g>
	<path class="st0" d="M174.9,85.8"/>
</g>
<g>
	<path class="st1" d="M98.4,35.5L54.2,9.7L54,20L29.5,6v37.9l3.4,2v8.6l6.6-5l34.3,19.9V59.1l8.9,5.2l7.4,11.4l-0.1-7.2l8.1,4.7
		L98.4,35.5z M72.9,67.7L39.5,48.3L34,52.6v-7.2l-3.4-2V7.7L54,21.2l-0.4,26.2l19.2,11.2V67.7z M55,21.7l17.7,10.1v25.5L54.6,46.8
		L55,21.7z M97.1,71.5l-8.1-4.7l0.1,5.5l-5.7-8.7L73.9,58V31.6v-0.3L55,20.6l0.2-9.1l42.2,24.6L97.1,71.5z"/>
	<path class="st1" d="M46.5,76.1c1.6-2.1,2-5.7,0.9-9.2c-1.6-4.9-5.7-8-9.1-6.9s-4.9,6-3.2,11l0,0c-1,0.1-2.1,0.4-3,0.9
		c-1.6,1-2.5,2.6-2.4,4.1v14.1c0,0.3,0.2,0.5,0.5,0.5s0.5-0.2,0.5-0.5V76c-0.1-1.2,0.7-2.5,2-3.3c0.7-0.5,1.8-0.8,2.9-0.8
		c1.5,3.7,4.5,6.1,7.3,6.1c0.5,0,1-0.1,1.4-0.2c0.6-0.2,1.2-0.6,1.7-1c3.3,1.9,5.3,5.4,5.2,9.2l0.1,16.3c0,0.3,0.2,0.5,0.5,0.5l0,0
		c0.3,0,0.5-0.2,0.5-0.5L52,86C52.1,82,50,78.2,46.5,76.1z M38.5,61c0.4-0.1,0.8-0.2,1.2-0.2c2.6,0,5.4,2.6,6.7,6.4
		c1.1,3.3,0.7,6.6-0.8,8.4l-7.3-3.8c-0.7-0.4-1.5-0.6-2.2-0.7c0-0.1-0.1-0.3-0.1-0.4C34.5,66.3,35.7,61.9,38.5,61z M43.8,76.9
		c-2.5,0.8-5.6-1.2-7.3-4.8c0.4,0.1,0.9,0.3,1.3,0.5l7,3.7C44.5,76.6,44.2,76.8,43.8,76.9z"/>
	<path class="st1" d="M34.8,79.9c-0.3,0-0.5,0.2-0.5,0.5v12.5c0,0.3,0.2,0.5,0.5,0.5s0.5-0.2,0.5-0.5V80.4
		C35.3,80.2,35.2,79.9,34.8,79.9z"/>
	<path class="st1" d="M46.6,86.5c-0.3,0-0.5,0.2-0.5,0.5v12.6c0,0.3,0.2,0.5,0.5,0.5s0.5-0.2,0.5-0.5V87
		C47.1,86.7,47,86.5,46.6,86.5z"/>
	<path class="st1" d="M80.4,95.1c1.6-2.1,2-5.7,0.9-9.2c-1.6-4.9-5.7-8-9.1-6.9c-1.7,0.6-2.9,2-3.5,4.1c-0.6,2-0.5,4.5,0.3,6.8l0,0
		c-1,0.1-2.1,0.4-3,0.9c-1.6,1-2.5,2.6-2.4,4.1v14.2c0,0.3,0.2,0.5,0.5,0.5c0.3,0,0.5-0.2,0.5-0.5V94.9c-0.1-1.2,0.7-2.5,2-3.3
		c0.7-0.5,1.8-0.8,2.9-0.8c0.8,1.9,2,3.5,3.4,4.6c1.2,1,2.6,1.5,3.8,1.5c0.5,0,1-0.1,1.5-0.2c0.6-0.2,1.2-0.6,1.7-1
		c3.3,1.9,5.3,5.4,5.2,9.5l0.1,16.3c0,0.3,0.2,0.5,0.5,0.5l0,0c0.3,0,0.5-0.2,0.5-0.5l-0.1-16.3C86.1,101,83.9,97.2,80.4,95.1z
		 M69.6,83.4c0.5-1.8,1.5-3,2.9-3.5c0.4-0.1,0.8-0.2,1.2-0.2c2.6,0,5.4,2.6,6.7,6.4c1.1,3.3,0.7,6.6-0.8,8.4l-7.3-3.8
		c-0.7-0.4-1.5-0.6-2.2-0.7c0-0.1-0.1-0.3-0.1-0.4C69.1,87.4,69.1,85.2,69.6,83.4z M77.8,95.9c-1.4,0.4-2.9,0.1-4.4-1.1
		c-1.2-0.9-2.1-2.2-2.9-3.7c0.4,0.1,0.9,0.3,1.3,0.5l7,3.7C78.4,95.5,78.1,95.7,77.8,95.9z"/>
	<path class="st1" d="M68.8,98.9c-0.3,0-0.5,0.2-0.5,0.5v12.5c0,0.3,0.2,0.5,0.5,0.5s0.5-0.2,0.5-0.5V99.4
		C69.2,99.1,69.1,98.9,68.8,98.9z"/>
	<path class="st1" d="M80.6,105.4c-0.3,0-0.5,0.2-0.5,0.5v12.6c0,0.3,0.2,0.5,0.5,0.5s0.5-0.2,0.5-0.5v-12.6
		C81.1,105.7,80.9,105.4,80.6,105.4z"/>
</g>
</svg>
