<?xml version="1.0" encoding="utf-8"?>
<!-- Generator: Adobe Illustrator 24.0.0, SVG Export Plug-In . SVG Version: 6.00 Build 0)  -->
<svg version="1.1" xmlns="http://www.w3.org/2000/svg" xmlns:xlink="http://www.w3.org/1999/xlink" x="0px" y="0px"
	 viewBox="0 0 128 128" style="enable-background:new 0 0 128 128;" xml:space="preserve">
<style type="text/css">
	.st0{display:none;}
	.st1{display:inline;}
	.st2{fill:none;stroke:#A8A7A7;stroke-width:1.548438e-02;stroke-miterlimit:10;}
	.st3{fill:#FF4E00;}
</style>
<g id="Layer_1">
	<g id="Layer_2_1_" class="st0">
		<g class="st1">
			<polygon class="st2" points="-23.1,74.1 55.9,28.5 135,74.1 55.9,119.8 			"/>
			<line class="st2" x1="55.3" y1="119.4" x2="134.3" y2="73.8"/>
			<line class="st2" x1="54.6" y1="119" x2="133.7" y2="73.4"/>
			<line class="st2" x1="54" y1="118.7" x2="133" y2="73"/>
			<line class="st2" x1="53.3" y1="118.3" x2="132.4" y2="72.6"/>
			<line class="st2" x1="52.7" y1="117.9" x2="131.7" y2="72.3"/>
			<line class="st2" x1="52" y1="117.5" x2="131.1" y2="71.9"/>
			<line class="st2" x1="51.4" y1="117.2" x2="130.4" y2="71.5"/>
			<line class="st2" x1="50.7" y1="116.8" x2="129.8" y2="71.1"/>
			<line class="st2" x1="50.1" y1="116.4" x2="129.1" y2="70.8"/>
			<line class="st2" x1="49.4" y1="116" x2="128.5" y2="70.4"/>
			<line class="st2" x1="48.7" y1="115.6" x2="127.8" y2="70"/>
			<line class="st2" x1="48.1" y1="115.3" x2="127.2" y2="69.6"/>
			<line class="st2" x1="47.4" y1="114.9" x2="126.5" y2="69.2"/>
			<line class="st2" x1="46.8" y1="114.5" x2="125.9" y2="68.9"/>
			<line class="st2" x1="46.1" y1="114.1" x2="125.2" y2="68.5"/>
			<line class="st2" x1="45.5" y1="113.8" x2="124.5" y2="68.1"/>
			<line class="st2" x1="44.8" y1="113.4" x2="123.9" y2="67.7"/>
			<line class="st2" x1="44.2" y1="113" x2="123.2" y2="67.4"/>
			<line class="st2" x1="43.5" y1="112.6" x2="122.6" y2="67"/>
			<line class="st2" x1="42.9" y1="112.3" x2="121.9" y2="66.6"/>
			<line class="st2" x1="42.2" y1="111.9" x2="121.3" y2="66.2"/>
			<line class="st2" x1="41.6" y1="111.5" x2="120.6" y2="65.8"/>
			<line class="st2" x1="40.9" y1="111.1" x2="120" y2="65.5"/>
			<line class="st2" x1="40.3" y1="110.7" x2="119.3" y2="65.1"/>
			<line class="st2" x1="39.6" y1="110.4" x2="118.7" y2="64.7"/>
			<line class="st2" x1="38.9" y1="110" x2="118" y2="64.3"/>
			<line class="st2" x1="38.3" y1="109.6" x2="117.4" y2="64"/>
			<line class="st2" x1="37.6" y1="109.2" x2="116.7" y2="63.6"/>
			<line class="st2" x1="37" y1="108.9" x2="116.1" y2="63.2"/>
			<line class="st2" x1="36.3" y1="108.5" x2="115.4" y2="62.8"/>
			<line class="st2" x1="35.7" y1="108.1" x2="114.7" y2="62.5"/>
			<line class="st2" x1="35" y1="107.7" x2="114.1" y2="62.1"/>
			<line class="st2" x1="34.4" y1="107.3" x2="113.4" y2="61.7"/>
			<line class="st2" x1="33.7" y1="107" x2="112.8" y2="61.3"/>
			<line class="st2" x1="33.1" y1="106.6" x2="112.1" y2="60.9"/>
			<line class="st2" x1="32.4" y1="106.2" x2="111.5" y2="60.6"/>
			<line class="st2" x1="31.8" y1="105.8" x2="110.8" y2="60.2"/>
			<line class="st2" x1="31.1" y1="105.5" x2="110.2" y2="59.8"/>
			<line class="st2" x1="30.5" y1="105.1" x2="109.5" y2="59.4"/>
			<line class="st2" x1="29.8" y1="104.7" x2="108.9" y2="59.1"/>
			<line class="st2" x1="29.1" y1="104.3" x2="108.2" y2="58.7"/>
			<line class="st2" x1="28.5" y1="104" x2="107.6" y2="58.3"/>
			<line class="st2" x1="27.8" y1="103.6" x2="106.9" y2="57.9"/>
			<line class="st2" x1="27.2" y1="103.2" x2="106.2" y2="57.5"/>
			<line class="st2" x1="26.5" y1="102.8" x2="105.6" y2="57.2"/>
			<line class="st2" x1="25.9" y1="102.4" x2="104.9" y2="56.8"/>
			<line class="st2" x1="25.2" y1="102.1" x2="104.3" y2="56.4"/>
			<line class="st2" x1="24.6" y1="101.7" x2="103.6" y2="56"/>
			<line class="st2" x1="23.9" y1="101.3" x2="103" y2="55.7"/>
			<line class="st2" x1="23.3" y1="100.9" x2="102.3" y2="55.3"/>
			<line class="st2" x1="22.6" y1="100.6" x2="101.7" y2="54.9"/>
			<line class="st2" x1="22" y1="100.2" x2="101" y2="54.5"/>
			<line class="st2" x1="21.3" y1="99.8" x2="100.4" y2="54.2"/>
			<line class="st2" x1="20.7" y1="99.4" x2="99.7" y2="53.8"/>
			<line class="st2" x1="20" y1="99" x2="99.1" y2="53.4"/>
			<line class="st2" x1="19.3" y1="98.7" x2="98.4" y2="53"/>
			<line class="st2" x1="18.7" y1="98.3" x2="97.8" y2="52.6"/>
			<line class="st2" x1="18" y1="97.9" x2="97.1" y2="52.3"/>
			<line class="st2" x1="17.4" y1="97.5" x2="96.4" y2="51.9"/>
			<line class="st2" x1="16.7" y1="97.2" x2="95.8" y2="51.5"/>
			<line class="st2" x1="16.1" y1="96.8" x2="95.1" y2="51.1"/>
			<line class="st2" x1="15.4" y1="96.4" x2="94.5" y2="50.8"/>
			<line class="st2" x1="14.8" y1="96" x2="93.8" y2="50.4"/>
			<line class="st2" x1="14.1" y1="95.7" x2="93.2" y2="50"/>
			<line class="st2" x1="13.5" y1="95.3" x2="92.5" y2="49.6"/>
			<line class="st2" x1="12.8" y1="94.9" x2="91.9" y2="49.2"/>
			<line class="st2" x1="12.2" y1="94.5" x2="91.2" y2="48.9"/>
			<line class="st2" x1="11.5" y1="94.1" x2="90.6" y2="48.5"/>
			<line class="st2" x1="10.9" y1="93.8" x2="89.9" y2="48.1"/>
			<line class="st2" x1="10.2" y1="93.4" x2="89.3" y2="47.7"/>
			<line class="st2" x1="9.5" y1="93" x2="88.6" y2="47.4"/>
			<line class="st2" x1="8.9" y1="92.6" x2="88" y2="47"/>
			<line class="st2" x1="8.2" y1="92.3" x2="87.3" y2="46.6"/>
			<line class="st2" x1="7.6" y1="91.9" x2="86.6" y2="46.2"/>
			<line class="st2" x1="6.9" y1="91.5" x2="86" y2="45.9"/>
			<line class="st2" x1="6.3" y1="91.1" x2="85.3" y2="45.5"/>
			<line class="st2" x1="5.6" y1="90.7" x2="84.7" y2="45.1"/>
			<line class="st2" x1="5" y1="90.4" x2="84" y2="44.7"/>
			<line class="st2" x1="4.3" y1="90" x2="83.4" y2="44.3"/>
			<line class="st2" x1="3.7" y1="89.6" x2="82.7" y2="44"/>
			<line class="st2" x1="3" y1="89.2" x2="82.1" y2="43.6"/>
			<line class="st2" x1="2.4" y1="88.9" x2="81.4" y2="43.2"/>
			<line class="st2" x1="1.7" y1="88.5" x2="80.8" y2="42.8"/>
			<line class="st2" x1="1.1" y1="88.1" x2="80.1" y2="42.5"/>
			<line class="st2" x1="0.4" y1="87.7" x2="79.5" y2="42.1"/>
			<line class="st2" x1="-0.3" y1="87.4" x2="78.8" y2="41.7"/>
			<line class="st2" x1="-0.9" y1="87" x2="78.2" y2="41.3"/>
			<line class="st2" x1="-1.6" y1="86.6" x2="77.5" y2="40.9"/>
			<line class="st2" x1="-2.2" y1="86.2" x2="76.8" y2="40.6"/>
			<line class="st2" x1="-2.9" y1="85.8" x2="76.2" y2="40.2"/>
			<line class="st2" x1="-3.5" y1="85.5" x2="75.5" y2="39.8"/>
			<line class="st2" x1="-4.2" y1="85.1" x2="74.9" y2="39.4"/>
			<line class="st2" x1="-4.8" y1="84.7" x2="74.2" y2="39.1"/>
			<line class="st2" x1="-5.5" y1="84.3" x2="73.6" y2="38.7"/>
			<line class="st2" x1="-6.1" y1="84" x2="72.9" y2="38.3"/>
			<line class="st2" x1="-6.8" y1="83.6" x2="72.3" y2="37.9"/>
			<line class="st2" x1="-7.4" y1="83.2" x2="71.6" y2="37.5"/>
			<line class="st2" x1="-8.1" y1="82.8" x2="71" y2="37.2"/>
			<line class="st2" x1="-8.8" y1="82.4" x2="70.3" y2="36.8"/>
			<line class="st2" x1="-9.4" y1="82.1" x2="69.7" y2="36.4"/>
			<line class="st2" x1="-10.1" y1="81.7" x2="69" y2="36"/>
			<line class="st2" x1="-10.7" y1="81.3" x2="68.4" y2="35.7"/>
			<line class="st2" x1="-11.4" y1="80.9" x2="67.7" y2="35.3"/>
			<line class="st2" x1="-12" y1="80.6" x2="67" y2="34.9"/>
			<line class="st2" x1="-12.7" y1="80.2" x2="66.4" y2="34.5"/>
			<line class="st2" x1="-13.3" y1="79.8" x2="65.7" y2="34.2"/>
			<line class="st2" x1="-14" y1="79.4" x2="65.1" y2="33.8"/>
			<line class="st2" x1="-14.6" y1="79.1" x2="64.4" y2="33.4"/>
			<line class="st2" x1="-15.3" y1="78.7" x2="63.8" y2="33"/>
			<line class="st2" x1="-15.9" y1="78.3" x2="63.1" y2="32.6"/>
			<line class="st2" x1="-16.6" y1="77.9" x2="62.5" y2="32.3"/>
			<line class="st2" x1="-17.2" y1="77.5" x2="61.8" y2="31.9"/>
			<line class="st2" x1="-17.9" y1="77.2" x2="61.2" y2="31.5"/>
			<line class="st2" x1="-18.6" y1="76.8" x2="60.5" y2="31.1"/>
			<line class="st2" x1="-19.2" y1="76.4" x2="59.9" y2="30.8"/>
			<line class="st2" x1="-19.9" y1="76" x2="59.2" y2="30.4"/>
			<line class="st2" x1="-20.5" y1="75.7" x2="58.6" y2="30"/>
			<line class="st2" x1="-21.2" y1="75.3" x2="57.9" y2="29.6"/>
			<line class="st2" x1="-21.8" y1="74.9" x2="57.2" y2="29.2"/>
			<line class="st2" x1="-22.5" y1="74.5" x2="56.6" y2="28.9"/>
			<line class="st2" x1="55.3" y1="28.9" x2="134.3" y2="74.5"/>
			<line class="st2" x1="54.6" y1="29.2" x2="133.7" y2="74.9"/>
			<line class="st2" x1="54" y1="29.6" x2="133" y2="75.3"/>
			<line class="st2" x1="53.3" y1="30" x2="132.4" y2="75.7"/>
			<line class="st2" x1="52.7" y1="30.4" x2="131.7" y2="76"/>
			<line class="st2" x1="52" y1="30.8" x2="131.1" y2="76.4"/>
			<line class="st2" x1="51.4" y1="31.1" x2="130.4" y2="76.8"/>
			<line class="st2" x1="50.7" y1="31.5" x2="129.8" y2="77.2"/>
			<line class="st2" x1="50.1" y1="31.9" x2="129.1" y2="77.5"/>
			<line class="st2" x1="49.4" y1="32.3" x2="128.5" y2="77.9"/>
			<line class="st2" x1="48.7" y1="32.6" x2="127.8" y2="78.3"/>
			<line class="st2" x1="48.1" y1="33" x2="127.2" y2="78.7"/>
			<line class="st2" x1="47.4" y1="33.4" x2="126.5" y2="79.1"/>
			<line class="st2" x1="46.8" y1="33.8" x2="125.9" y2="79.4"/>
			<line class="st2" x1="46.1" y1="34.2" x2="125.2" y2="79.8"/>
			<line class="st2" x1="45.5" y1="34.5" x2="124.5" y2="80.2"/>
			<line class="st2" x1="44.8" y1="34.9" x2="123.9" y2="80.6"/>
			<line class="st2" x1="44.2" y1="35.3" x2="123.2" y2="80.9"/>
			<line class="st2" x1="43.5" y1="35.7" x2="122.6" y2="81.3"/>
			<line class="st2" x1="42.9" y1="36" x2="121.9" y2="81.7"/>
			<line class="st2" x1="42.2" y1="36.4" x2="121.3" y2="82.1"/>
			<line class="st2" x1="41.6" y1="36.8" x2="120.6" y2="82.4"/>
			<line class="st2" x1="40.9" y1="37.2" x2="120" y2="82.8"/>
			<line class="st2" x1="40.3" y1="37.5" x2="119.3" y2="83.2"/>
			<line class="st2" x1="39.6" y1="37.9" x2="118.7" y2="83.6"/>
			<line class="st2" x1="38.9" y1="38.3" x2="118" y2="84"/>
			<line class="st2" x1="38.3" y1="38.7" x2="117.4" y2="84.3"/>
			<line class="st2" x1="37.6" y1="39.1" x2="116.7" y2="84.7"/>
			<line class="st2" x1="37" y1="39.4" x2="116.1" y2="85.1"/>
			<line class="st2" x1="36.3" y1="39.8" x2="115.4" y2="85.5"/>
			<line class="st2" x1="35.7" y1="40.2" x2="114.7" y2="85.8"/>
			<line class="st2" x1="35" y1="40.6" x2="114.1" y2="86.2"/>
			<line class="st2" x1="34.4" y1="40.9" x2="113.4" y2="86.6"/>
			<line class="st2" x1="33.7" y1="41.3" x2="112.8" y2="87"/>
			<line class="st2" x1="33.1" y1="41.7" x2="112.1" y2="87.4"/>
			<line class="st2" x1="32.4" y1="42.1" x2="111.5" y2="87.7"/>
			<line class="st2" x1="31.8" y1="42.5" x2="110.8" y2="88.1"/>
			<line class="st2" x1="31.1" y1="42.8" x2="110.2" y2="88.5"/>
			<line class="st2" x1="30.5" y1="43.2" x2="109.5" y2="88.9"/>
			<line class="st2" x1="29.8" y1="43.6" x2="108.9" y2="89.2"/>
			<line class="st2" x1="29.1" y1="44" x2="108.2" y2="89.6"/>
			<line class="st2" x1="28.5" y1="44.3" x2="107.6" y2="90"/>
			<line class="st2" x1="27.8" y1="44.7" x2="106.9" y2="90.4"/>
			<line class="st2" x1="27.2" y1="45.1" x2="106.2" y2="90.7"/>
			<line class="st2" x1="26.5" y1="45.5" x2="105.6" y2="91.1"/>
			<line class="st2" x1="25.9" y1="45.9" x2="104.9" y2="91.5"/>
			<line class="st2" x1="25.2" y1="46.2" x2="104.3" y2="91.9"/>
			<line class="st2" x1="24.6" y1="46.6" x2="103.6" y2="92.3"/>
			<line class="st2" x1="23.9" y1="47" x2="103" y2="92.6"/>
			<line class="st2" x1="23.3" y1="47.4" x2="102.3" y2="93"/>
			<line class="st2" x1="22.6" y1="47.7" x2="101.7" y2="93.4"/>
			<line class="st2" x1="22" y1="48.1" x2="101" y2="93.8"/>
			<line class="st2" x1="21.3" y1="48.5" x2="100.4" y2="94.1"/>
			<line class="st2" x1="20.7" y1="48.9" x2="99.7" y2="94.5"/>
			<line class="st2" x1="20" y1="49.2" x2="99.1" y2="94.9"/>
			<line class="st2" x1="19.3" y1="49.6" x2="98.4" y2="95.3"/>
			<line class="st2" x1="18.7" y1="50" x2="97.8" y2="95.7"/>
			<line class="st2" x1="18" y1="50.4" x2="97.1" y2="96"/>
			<line class="st2" x1="17.4" y1="50.8" x2="96.4" y2="96.4"/>
			<line class="st2" x1="16.7" y1="51.1" x2="95.8" y2="96.8"/>
			<line class="st2" x1="16.1" y1="51.5" x2="95.1" y2="97.2"/>
			<line class="st2" x1="15.4" y1="51.9" x2="94.5" y2="97.5"/>
			<line class="st2" x1="14.8" y1="52.3" x2="93.8" y2="97.9"/>
			<line class="st2" x1="14.1" y1="52.6" x2="93.2" y2="98.3"/>
			<line class="st2" x1="13.5" y1="53" x2="92.5" y2="98.7"/>
			<line class="st2" x1="12.8" y1="53.4" x2="91.9" y2="99"/>
			<line class="st2" x1="12.2" y1="53.8" x2="91.2" y2="99.4"/>
			<line class="st2" x1="11.5" y1="54.2" x2="90.6" y2="99.8"/>
			<line class="st2" x1="10.9" y1="54.5" x2="89.9" y2="100.2"/>
			<line class="st2" x1="10.2" y1="54.9" x2="89.3" y2="100.6"/>
			<line class="st2" x1="9.5" y1="55.3" x2="88.6" y2="100.9"/>
			<line class="st2" x1="8.9" y1="55.7" x2="88" y2="101.3"/>
			<line class="st2" x1="8.2" y1="56" x2="87.3" y2="101.7"/>
			<line class="st2" x1="7.6" y1="56.4" x2="86.6" y2="102.1"/>
			<line class="st2" x1="6.9" y1="56.8" x2="86" y2="102.4"/>
			<line class="st2" x1="6.3" y1="57.2" x2="85.3" y2="102.8"/>
			<line class="st2" x1="5.6" y1="57.5" x2="84.7" y2="103.2"/>
			<line class="st2" x1="5" y1="57.9" x2="84" y2="103.6"/>
			<line class="st2" x1="4.3" y1="58.3" x2="83.4" y2="104"/>
			<line class="st2" x1="3.7" y1="58.7" x2="82.7" y2="104.3"/>
			<line class="st2" x1="3" y1="59.1" x2="82.1" y2="104.7"/>
			<line class="st2" x1="2.4" y1="59.4" x2="81.4" y2="105.1"/>
			<line class="st2" x1="1.7" y1="59.8" x2="80.8" y2="105.5"/>
			<line class="st2" x1="1.1" y1="60.2" x2="80.1" y2="105.8"/>
			<line class="st2" x1="0.4" y1="60.6" x2="79.5" y2="106.2"/>
			<line class="st2" x1="-0.3" y1="60.9" x2="78.8" y2="106.6"/>
			<line class="st2" x1="-0.9" y1="61.3" x2="78.2" y2="107"/>
			<line class="st2" x1="-1.6" y1="61.7" x2="77.5" y2="107.3"/>
			<line class="st2" x1="-2.2" y1="62.1" x2="76.8" y2="107.7"/>
			<line class="st2" x1="-2.9" y1="62.5" x2="76.2" y2="108.1"/>
			<line class="st2" x1="-3.5" y1="62.8" x2="75.5" y2="108.5"/>
			<line class="st2" x1="-4.2" y1="63.2" x2="74.9" y2="108.9"/>
			<line class="st2" x1="-4.8" y1="63.6" x2="74.2" y2="109.2"/>
			<line class="st2" x1="-5.5" y1="64" x2="73.6" y2="109.6"/>
			<line class="st2" x1="-6.1" y1="64.3" x2="72.9" y2="110"/>
			<line class="st2" x1="-6.8" y1="64.7" x2="72.3" y2="110.4"/>
			<line class="st2" x1="-7.4" y1="65.1" x2="71.6" y2="110.7"/>
			<line class="st2" x1="-8.1" y1="65.5" x2="71" y2="111.1"/>
			<line class="st2" x1="-8.8" y1="65.8" x2="70.3" y2="111.5"/>
			<line class="st2" x1="-9.4" y1="66.2" x2="69.7" y2="111.9"/>
			<line class="st2" x1="-10.1" y1="66.6" x2="69" y2="112.3"/>
			<line class="st2" x1="-10.7" y1="67" x2="68.4" y2="112.6"/>
			<line class="st2" x1="-11.4" y1="67.4" x2="67.7" y2="113"/>
			<line class="st2" x1="-12" y1="67.7" x2="67" y2="113.4"/>
			<line class="st2" x1="-12.7" y1="68.1" x2="66.4" y2="113.8"/>
			<line class="st2" x1="-13.3" y1="68.5" x2="65.7" y2="114.1"/>
			<line class="st2" x1="-14" y1="68.9" x2="65.1" y2="114.5"/>
			<line class="st2" x1="-14.6" y1="69.2" x2="64.4" y2="114.9"/>
			<line class="st2" x1="-15.3" y1="69.6" x2="63.8" y2="115.3"/>
			<line class="st2" x1="-15.9" y1="70" x2="63.1" y2="115.6"/>
			<line class="st2" x1="-16.6" y1="70.4" x2="62.5" y2="116"/>
			<line class="st2" x1="-17.2" y1="70.8" x2="61.8" y2="116.4"/>
			<line class="st2" x1="-17.9" y1="71.1" x2="61.2" y2="116.8"/>
			<line class="st2" x1="-18.6" y1="71.5" x2="60.5" y2="117.2"/>
			<line class="st2" x1="-19.2" y1="71.9" x2="59.9" y2="117.5"/>
			<line class="st2" x1="-19.9" y1="72.3" x2="59.2" y2="117.9"/>
			<line class="st2" x1="-20.5" y1="72.6" x2="58.6" y2="118.3"/>
			<line class="st2" x1="-21.2" y1="73" x2="57.9" y2="118.7"/>
			<line class="st2" x1="-21.8" y1="73.4" x2="57.2" y2="119"/>
			<line class="st2" x1="-22.5" y1="73.8" x2="56.6" y2="119.4"/>
		</g>
	</g>
</g>
<g id="Layer_2">
	<g>
		<path class="st3" d="M93.6,51c0.9,0,1.6-1.2,1.6-2.7s-0.7-2.7-1.6-2.7s-1.6,1.2-1.6,2.7S92.6,51,93.6,51z M93.6,46.5
			c0.2,0,0.6,0.6,0.6,1.7c0,1.1-0.4,1.7-0.6,1.7s-0.6-0.6-0.6-1.7C92.9,47.1,93.4,46.5,93.6,46.5z"/>
		<path class="st3" d="M98,53.2c0.9,0,1.6-1.2,1.6-2.7s-0.7-2.7-1.6-2.7c-0.9,0-1.6,1.2-1.6,2.7S97.1,53.2,98,53.2z M98,48.8
			c0.2,0,0.6,0.6,0.6,1.7c0,1.1-0.4,1.7-0.6,1.7s-0.6-0.6-0.6-1.7C97.4,49.4,97.8,48.8,98,48.8z"/>
		<path class="st3" d="M102.5,55.4c0.9,0,1.6-1.2,1.6-2.7s-0.7-2.7-1.6-2.7s-1.6,1.2-1.6,2.7S101.5,55.4,102.5,55.4z M102.5,51
			c0.2,0,0.6,0.6,0.6,1.7c0,1.1-0.4,1.7-0.6,1.7s-0.6-0.6-0.6-1.7C101.9,51.6,102.3,51,102.5,51z"/>
		<path class="st3" d="M123.1,97.5l0.5-0.9l-12.8-7.4V49.9L29.5,5.1v17L11.3,12v63.5l13.8,8.1l2.6,6.8l4.2,0.5
			c1.2,1.8,2.5,3.5,3.9,4.9h-0.1v4.9l10.9,6.2l5.3-3.3l2.6,2.9l5-2.9l33,19.2v-17.6l18.2,10.6v-15.5l9.4,5.4l0.5-0.9l-9.9-5.7v-3.9
			l5,2.9l0.5-0.9l-5.5-3.2v-3.9L123.1,97.5z M30.5,6.8l79.2,43.7v38.2l-3.5-2V61.3L34,20.7v3.9l-3.5-1.9V6.8z M105.3,87.3v3.9
			l-9.4-5.4l-0.5,0.9l9.9,5.7v3.9l-6.5-3.8l-0.5,0.9l7,4v9.1l-12.6-7.3l-0.1-42v-0.3L35,25.1v-2.7l70.3,39.6v24.2l-5.1-2.9l-0.5,0.9
			L105.3,87.3z M28.5,89.5L26,83l0,0l0,0l-1.5-3.8h2.7c0.6,3.1,1.8,6.4,3.5,9.6c0.2,0.4,0.4,0.7,0.6,1.1L28.5,89.5z M27,78.1h-1.4
			l1.3-0.8C26.9,77.6,27,77.8,27,78.1z M66.3,94.6l-7,3.9l-3.1-3.8l7.1-3.8L66.3,94.6C66.3,94.5,66.3,94.5,66.3,94.6z M58.5,87.4
			l-3.1,0.3c-0.5-3.4-1.7-7-3.7-10.5c0-0.1-0.1-0.1-0.1-0.2l2.8,0L58.5,87.4z M55.2,95.1l3.3,4l-3.9,5.9l-3.3-4.1
			C53.3,99.9,54.6,97.8,55.2,95.1z M63,89.9L55.4,94c0.2-1.6,0.3-3.4,0.1-5.3l3.7-0.4c0.1,0,0.1,0,0.2-0.1l0,0l3.6-2.1
			C63.2,87,63.3,88.6,63,89.9z M59.4,87.1l-4.1-10.4l6.2-3.3l3.7,10.4L59.4,87.1z M54.5,76l-2.5,0l6.3-3.6l2,0.5L54.5,76z M51,76
			L51,76c-1.2-2-2.6-3.8-4-5.4l6.6-3.6c0.7,0.4,3.1,1.9,4.1,4.7l-6.9,4L51,76z M36.9,60.9l8.9,4.6l0.3,4.2c-1.4-1.4-2.9-2.7-4.5-3.6
			c-1.7-1-3.3-1.7-4.9-2L36.9,60.9z M53.1,62.2l0,3.9l-5.9,3.3l-0.3-3.9L53.1,62.2z M46.3,64.6l-8.8-4.5l6.2-3.6l8.7,4.9L46.3,64.6z
			 M36,59.8l-0.2,3.7l-1.3,0.4c-0.8,0-1.6,0.2-2.3,0.5l-2.9-3.7l6.4-3.3l1.6,1.7L36,59.8z M28.5,61.3l2.7,3.5c0,0,0,0,0,0
			c-2,1.1-3.4,3.2-4,5.8L24.4,67L28.5,61.3z M31.7,65.7c0.1,0,0.1-0.1,0.2-0.1l0.1,0.2l2.7-0.9c0.1,0,0.1,0,0.2,0
			c1.9,0,4,0.7,6.3,2.1c3.7,2.3,7.1,6.1,9.6,10.7c5.2,9.5,5.2,19.6-0.1,22.6c-5.3,2.9-13.9-2.5-19.1-12
			C26.3,78.7,26.4,68.6,31.7,65.7z M47.2,102c0.1,0,0.2,0,0.3,0c1,0,2-0.2,2.9-0.5l1.1,1.3l-4.3,2.7V102z M59.5,99.5l5.7-3.2l-3.6,5
			l-5.4,3.1L59.5,99.5z M67.7,94.5L64,90.2c0.4-1.7,0.2-3.7,0-4.5l2.4-1.4l-4.3-12l-3.4-0.8c-1.2-3.2-3.8-4.9-4.6-5.3v-5l-10.3-5.7
			l-6,3.5l0.3-0.3l-2.2-2.4l-7.7,4l-5,6.9l3.8,4.9c-0.2,1.3-0.3,2.8-0.1,4.3l-2,1.1l-8-4.7V29.3l70.3,39.6v44.5L63.8,99.9L67.7,94.5
			z M36.8,96.7c3.1,2.9,6.4,4.7,9.4,5.2v3.6l-9.4-5.3V96.7z M91.5,121.2l-31-18.1l1.7-1l1-1.4l24.9,14.4V68.3L15.8,27.6v45.7l8,4.7
			l-0.7,0.4l1.5,3.8L12.3,75V13.7l21.9,12.1l57.3,31.7v42.2V121.2z M109.8,114.3l-17.1-10l0-4l13.6,7.9V97.9l3.5,2V114.3z
			 M109.8,98.8l-3.5-2v-3.9l3.5,2V98.8z M109.8,93.7l-3.5-2v-3.9l3.5,2V93.7z"/>
		<path class="st3" d="M75.3,52.5c-0.9,0-1.6,1.2-1.6,2.7s0.7,2.7,1.6,2.7s1.6-1.2,1.6-2.7S76.2,52.5,75.3,52.5z M75.3,56.9
			c-0.2,0-0.6-0.6-0.6-1.7c0-1.1,0.4-1.7,0.6-1.7s0.6,0.6,0.6,1.7C75.9,56.3,75.5,56.9,75.3,56.9z"/>
		<path class="st3" d="M79.8,54.7c-0.9,0-1.6,1.2-1.6,2.7s0.7,2.7,1.6,2.7s1.6-1.2,1.6-2.7S80.7,54.7,79.8,54.7z M79.8,59.2
			c-0.2,0-0.6-0.6-0.6-1.7c0-1.1,0.4-1.7,0.6-1.7s0.6,0.6,0.6,1.7C80.4,58.6,80,59.2,79.8,59.2z"/>
		<path class="st3" d="M84.2,56.9c-0.9,0-1.6,1.2-1.6,2.7s0.7,2.7,1.6,2.7s1.6-1.2,1.6-2.7S85.2,56.9,84.2,56.9z M84.2,61.4
			c-0.2,0-0.6-0.6-0.6-1.7c0-1.1,0.4-1.7,0.6-1.7s0.6,0.6,0.6,1.7C84.9,60.8,84.4,61.4,84.2,61.4z"/>
		<path class="st3" d="M40.7,95.3c1.7,1.1,3.4,1.6,5,1.6c1,0,1.9-0.2,2.8-0.7c2.1-1.2,3.3-3.7,3.4-7c0.1-3.3-1-7-2.9-10.5
			c-1.9-3.5-4.5-6.4-7.3-8.1c-2.9-1.8-5.6-2.1-7.8-0.9c-4.3,2.4-4.5,10.2-0.5,17.5C35.3,90.7,37.9,93.6,40.7,95.3z M34.4,70.6
			c0.7-0.4,1.5-0.6,2.3-0.6c1.4,0,2.9,0.5,4.5,1.5c2.6,1.6,5.1,4.3,7,7.7c1.8,3.3,2.8,6.9,2.8,10c-0.1,3-1.1,5.2-2.9,6.2
			c-1.8,1-4.2,0.7-6.8-0.9c-2.6-1.6-5.1-4.3-7-7.7C30.5,79.9,30.6,72.7,34.4,70.6z"/>
		<path class="st3" d="M40.8,88.9c0.9,0.5,1.7,0.8,2.5,0.8c0.5,0,1-0.1,1.4-0.4c1.1-0.6,1.7-1.8,1.7-3.5c0-1.6-0.5-3.4-1.4-5
			c-0.9-1.7-2.2-3-3.5-3.9c-1.4-0.9-2.8-1-3.9-0.4c-1.1,0.6-1.7,1.8-1.7,3.5c0,1.6,0.5,3.4,1.4,5C38.2,86.8,39.5,88.1,40.8,88.9z
			 M38.1,77.4c0.3-0.2,0.6-0.2,0.9-0.2c0.6,0,1.2,0.2,1.9,0.6c1.2,0.7,2.3,2,3.1,3.5c0.8,1.5,1.3,3.1,1.3,4.5c0,1.3-0.5,2.2-1.2,2.7
			c-0.8,0.4-1.8,0.3-2.9-0.4c-1.2-0.7-2.3-2-3.1-3.5c-0.8-1.5-1.3-3.1-1.3-4.5C37,78.8,37.4,77.8,38.1,77.4z"/>
	</g>
</g>
</svg>
